<svg width="160" height="18" viewBox="0 0 160 18" fill="none" xmlns="http://www.w3.org/2000/svg">
<path d="M11.928 13.808H5.256L4.152 17H0.624L6.648 0.223999H10.56L16.584 17H13.032L11.928 13.808ZM11.016 11.12L8.592 4.112L6.168 11.12H11.016ZM18.0197 8.6C18.0197 6.952 18.3877 5.48 19.1237 4.184C19.8757 2.872 20.8917 1.856 22.1717 1.136C23.4677 0.4 24.9157 0.0319996 26.5157 0.0319996C28.3877 0.0319996 30.0277 0.512 31.4357 1.472C32.8437 2.432 33.8277 3.76 34.3877 5.456H30.5237C30.1397 4.656 29.5957 4.056 28.8917 3.656C28.2037 3.256 27.4037 3.056 26.4917 3.056C25.5157 3.056 24.6437 3.288 23.8757 3.752C23.1237 4.2 22.5317 4.84 22.0997 5.672C21.6837 6.504 21.4757 7.48 21.4757 8.6C21.4757 9.704 21.6837 10.68 22.0997 11.528C22.5317 12.36 23.1237 13.008 23.8757 13.472C24.6437 13.92 25.5157 14.144 26.4917 14.144C27.4037 14.144 28.2037 13.944 28.8917 13.544C29.5957 13.128 30.1397 12.52 30.5237 11.72H34.3877C33.8277 13.432 32.8437 14.768 31.4357 15.728C30.0437 16.672 28.4037 17.144 26.5157 17.144C24.9157 17.144 23.4677 16.784 22.1717 16.064C20.8917 15.328 19.8757 14.312 19.1237 13.016C18.3877 11.72 18.0197 10.248 18.0197 8.6ZM51.5856 17H48.2256L40.6176 5.504V17H37.2576V0.223999H40.6176L48.2256 11.744V0.223999H51.5856V17ZM58.266 2.96V7.16H63.906V9.824H58.266V14.264H64.626V17H54.906V0.223999H64.626V2.96H58.266Z" fill="#675FB0"/>
<path d="M87.2942 0.248V17H83.9342V9.872H76.7582V17H73.3982V0.248H76.7582V7.136H83.9342V0.248H87.2942ZM93.9133 0.248V10.616C93.9133 11.752 94.2093 12.624 94.8013 13.232C95.3933 13.824 96.2253 14.12 97.2973 14.12C98.3853 14.12 99.2253 13.824 99.8173 13.232C100.409 12.624 100.705 11.752 100.705 10.616V0.248H104.089V10.592C104.089 12.016 103.777 13.224 103.153 14.216C102.545 15.192 101.721 15.928 100.681 16.424C99.6573 16.92 98.5133 17.168 97.2493 17.168C96.0013 17.168 94.8653 16.92 93.8413 16.424C92.8333 15.928 92.0333 15.192 91.4413 14.216C90.8493 13.224 90.5533 12.016 90.5533 10.592V0.248H93.9133ZM115.112 17.168C113.544 17.168 112.104 16.8 110.792 16.064C109.48 15.328 108.44 14.312 107.672 13.016C106.904 11.704 106.52 10.224 106.52 8.576C106.52 6.944 106.904 5.48 107.672 4.184C108.44 2.872 109.48 1.848 110.792 1.112C112.104 0.375999 113.544 0.0079999 115.112 0.0079999C116.696 0.0079999 118.136 0.375999 119.432 1.112C120.744 1.848 121.776 2.872 122.528 4.184C123.296 5.48 123.68 6.944 123.68 8.576C123.68 10.224 123.296 11.704 122.528 13.016C121.776 14.312 120.744 15.328 119.432 16.064C118.12 16.8 116.68 17.168 115.112 17.168ZM115.112 14.168C116.12 14.168 117.008 13.944 117.776 13.496C118.544 13.032 119.144 12.376 119.576 11.528C120.008 10.68 120.224 9.696 120.224 8.576C120.224 7.456 120.008 6.48 119.576 5.648C119.144 4.8 118.544 4.152 117.776 3.704C117.008 3.256 116.12 3.032 115.112 3.032C114.104 3.032 113.208 3.256 112.424 3.704C111.656 4.152 111.056 4.8 110.624 5.648C110.192 6.48 109.976 7.456 109.976 8.576C109.976 9.696 110.192 10.68 110.624 11.528C111.056 12.376 111.656 13.032 112.424 13.496C113.208 13.944 114.104 14.168 115.112 14.168ZM140.507 17H137.147L129.539 5.504V17H126.179V0.223999H129.539L137.147 11.744V0.223999H140.507V17ZM155.492 5.288C155.108 4.584 154.58 4.048 153.908 3.68C153.236 3.312 152.452 3.128 151.556 3.128C150.564 3.128 149.684 3.352 148.916 3.8C148.148 4.248 147.548 4.888 147.116 5.72C146.684 6.552 146.468 7.512 146.468 8.6C146.468 9.72 146.684 10.696 147.116 11.528C147.564 12.36 148.18 13 148.964 13.448C149.748 13.896 150.66 14.12 151.7 14.12C152.98 14.12 154.028 13.784 154.844 13.112C155.66 12.424 156.196 11.472 156.452 10.256H150.692V7.688H159.764V10.616C159.54 11.784 159.06 12.864 158.324 13.856C157.588 14.848 156.636 15.648 155.468 16.256C154.316 16.848 153.02 17.144 151.58 17.144C149.964 17.144 148.5 16.784 147.188 16.064C145.892 15.328 144.868 14.312 144.116 13.016C143.38 11.72 143.012 10.248 143.012 8.6C143.012 6.952 143.38 5.48 144.116 4.184C144.868 2.872 145.892 1.856 147.188 1.136C148.5 0.4 149.956 0.0319996 151.556 0.0319996C153.444 0.0319996 155.084 0.495999 156.476 1.424C157.868 2.336 158.828 3.624 159.356 5.288H155.492Z" fill="white"/>
</svg>
